<svg width="36" height="36" viewBox="0 0 36 36" fill="none" xmlns="http://www.w3.org/2000/svg">
<path d="M9.75 26.25L9.75 21.75M17.25 26.25L17.25 12.75M24.75 26.25V20.25" stroke="#205A76" stroke-width="3" stroke-linecap="round"/>
<path d="M32.25 8.25C32.25 10.7353 30.2353 12.75 27.75 12.75C25.2647 12.75 23.25 10.7353 23.25 8.25C23.25 5.76472 25.2647 3.75 27.75 3.75C30.2353 3.75 32.25 5.76472 32.25 8.25Z" stroke="#205A76" stroke-width="3"/>
<path d="M32.2433 16.5C32.2433 16.5 32.25 17.0093 32.25 18C32.25 24.7176 32.25 28.0763 30.1631 30.1632C28.0763 32.25 24.7175 32.25 18 32.25C11.2825 32.25 7.92373 32.25 5.83686 30.1632C3.75 28.0763 3.75 24.7176 3.75 18C3.75 11.2825 3.75 7.92377 5.83686 5.83691C7.92373 3.75005 11.2825 3.75005 18 3.75005L19.5 3.75" stroke="#205A76" stroke-width="3" stroke-linecap="round" stroke-linejoin="round"/>
</svg>
