<svg width="53" height="52" viewBox="0 0 53 52" fill="none" xmlns="http://www.w3.org/2000/svg">
<rect x="0.333008" width="52" height="52" rx="8" fill="url(#paint0_linear_4084_5702)"/>
<rect x="9.33301" y="9" width="34" height="34" rx="17" stroke="#205A76" stroke-width="2"/>
<path d="M26.3333 17.5479C25.5508 17.5479 24.8811 17.2722 24.3244 16.721C23.7676 16.1697 23.4887 15.5062 23.4878 14.7305C23.4868 13.9548 23.7657 13.2917 24.3244 12.7414C24.883 12.1911 25.5527 11.915 26.3333 11.9131C27.1139 11.9112 27.784 12.1873 28.3436 12.7414C28.9032 13.2955 29.1816 13.9585 29.1787 14.7305C29.1759 15.5025 28.8975 16.1659 28.3436 16.721C27.7897 17.276 27.1196 17.5516 26.3333 17.5479ZM23.4129 40.087C22.6685 40.087 22.065 39.4863 22.065 38.7454V23.009C22.065 22.311 21.5272 21.7313 20.8298 21.6579C19.8071 21.5503 18.7724 21.4129 17.7257 21.2457C16.7235 21.0857 15.7544 20.8983 14.8183 20.6837C14.1001 20.5191 13.6729 19.7938 13.8525 19.0824L13.9063 18.8693C14.0897 18.1428 14.8348 17.7089 15.5688 17.8743C17.0247 18.2025 18.5499 18.4519 20.1443 18.6227C22.231 18.8462 24.294 18.9575 26.3333 18.9566C28.3725 18.9556 30.4355 18.8439 32.5222 18.6213C34.1166 18.4512 35.6418 18.2022 37.0977 17.8743C37.8317 17.7089 38.5768 18.1428 38.7602 18.8693L38.814 19.0824C38.9937 19.7938 38.5664 20.5191 37.8482 20.6837C36.9122 20.8983 35.943 21.0857 34.9409 21.2457C33.8941 21.4129 32.8594 21.5503 31.8367 21.6579C31.1394 21.7313 30.6015 22.311 30.6015 23.009V38.7454C30.6015 39.4863 29.998 40.087 29.2536 40.087H29.1039C28.3595 40.087 27.756 39.4863 27.756 38.7454V32.9764C27.756 32.2355 27.1525 31.6348 26.4081 31.6348H26.2584C25.514 31.6348 24.9105 32.2355 24.9105 32.9764V38.7454C24.9105 39.4863 24.3071 40.087 23.5627 40.087H23.4129Z" fill="#205A76"/>
<defs>
<linearGradient id="paint0_linear_4084_5702" x1="-5.16699" y1="-4" x2="64.333" y2="63.5" gradientUnits="userSpaceOnUse">
<stop stop-color="white"/>
<stop offset="0.5" stop-color="#CCCCCC"/>
<stop offset="1" stop-color="white"/>
</linearGradient>
</defs>
</svg>
