<?xml version="1.0" encoding="UTF-8" standalone="no"?>
<svg width="800px" height="800px" viewBox="-0.5 0 104 104" version="1.1" xmlns="http://www.w3.org/2000/svg" xmlns:xlink="http://www.w3.org/1999/xlink">
    <!-- Uploaded to: SVG Repo, www.svgrepo.com, Generator: SVG Repo Mixer Tools -->
    <title>22-multimeda-adjustment-colors</title>
    <desc>Created with Sketch.</desc>
    <defs>
</defs>
    <g id="3.Multimedia" stroke="none" stroke-width="1" fill="none" fill-rule="evenodd" stroke-linecap="round" stroke-linejoin="round">
        <g id="Multimedia-(Color)" transform="translate(-298.000000, -501.000000)" stroke-width="3.5">
            <g id="22-multimeda-adjustment-colors" transform="translate(300.000000, 503.000000)">
                <circle id="Layer-1" stroke="#263238" fill="#F7E07E" cx="69" cy="30" r="30">
</circle>
                <circle id="Layer-2" stroke="#263238" fill="#76B6FF" cx="50" cy="70" r="30">
</circle>
                <circle id="Layer-3" stroke="#263238" fill="#7BE380" cx="30" cy="30" r="30">
</circle>
                <path d="M77.7950147,58.6901642 C73.3297707,47.7275072 62.5673133,40 50,40 C46.9396773,40 43.9863813,40.4582358 41.2049827,41.3098366 C45.6702293,52.2724928 56.4326867,60 69,60 C72.0603217,60 75.0136168,59.5417645 77.7950147,58.6901642 L77.7950147,58.6901642 Z" id="Layer-4" stroke="#263238" fill="#A7B5E0">
</path>
                <path d="M58.7950147,41.3098358 C54.3297707,52.2724928 43.5673133,60 31,60 C27.9396773,60 24.9863813,59.5417642 22.2049827,58.6901634 C26.6702293,47.7275072 37.4326867,40 50,40 C53.0603217,40 56.0136168,40.4582355 58.7950147,41.3098358 L58.7950147,41.3098358 Z" id="Layer-5" stroke="#263238" fill="#82E3ED">
</path>
                <path d="M50,7.63893493 C43.8625064,13.1321405 40,21.1150019 40,30 C40,38.8849981 43.8625064,46.8678595 50,52.3610651 C56.1374936,46.8678595 60,38.8849981 60,30 C60,21.1150019 56.1374936,13.1321405 50,7.63893493 L50,7.63893493 Z" id="Layer-6" stroke="#332638" fill="#E0B0A7">
</path>
                <path d="M57.8991077,41.0508099 C55.382313,40.3656854 52.7338617,40 50,40 C47.2661383,40 44.617687,40.3656854 42.1008923,41.0508099 C43.8318665,45.4171857 46.558222,49.2805904 50,52.3610651 C53.441778,49.2805904 56.1681335,45.4171857 57.8991077,41.0508099 L57.8991077,41.0508099 Z" id="Layer-7" stroke="#263238" fill="#D296E3">
</path>
            </g>
        </g>
    </g>
</svg>