<!DOCTYPE svg PUBLIC "-//W3C//DTD SVG 1.1//EN" "http://www.w3.org/Graphics/SVG/1.1/DTD/svg11.dtd">
<!-- Uploaded to: SVG Repo, www.svgrepo.com, Transformed by: SVG Repo Mixer Tools -->
<svg fill="#ffffff" width="800px" height="800px" viewBox="0 0 32 32" version="1.1" xmlns="http://www.w3.org/2000/svg" stroke="#ffffff">
<g id="SVGRepo_bgCarrier" stroke-width="0"/>
<g id="SVGRepo_tracerCarrier" stroke-linecap="round" stroke-linejoin="round"/>
<g id="SVGRepo_iconCarrier"> <title>eye-low-vision</title> <path d="M24.372 22.603c2.513-1.651 4.675-3.561 6.535-5.738l0.035-0.042c0.192-0.219 0.309-0.507 0.309-0.823s-0.117-0.604-0.31-0.825l0.001 0.001c-6.911-7.893-13.98-10.246-21.028-7.032l-7.029-7.029c-0.226-0.225-0.537-0.363-0.881-0.363-0.69 0-1.25 0.56-1.25 1.25 0 0.344 0.139 0.655 0.363 0.881l27.999 28.001c0.226 0.226 0.539 0.366 0.884 0.366 0.691 0 1.251-0.56 1.251-1.251 0-0.345-0.14-0.658-0.366-0.884l0 0zM28.318 16c-1.661 1.843-3.558 3.428-5.653 4.721l-0.111 0.064-2.076-2.076c0.482-0.771 0.768-1.706 0.771-2.709v-0.001c-0.004-2.898-2.352-5.246-5.25-5.25h-0c-1.003 0.003-1.939 0.29-2.732 0.785l0.022-0.013-1.467-1.467c5.474-2.061 10.894-0.115 16.496 5.945zM15.18 13.412c0.242-0.091 0.522-0.149 0.814-0.162l0.005-0c0.029-0.001 0.063-0.002 0.097-0.002 1.466 0 2.655 1.189 2.655 2.655 0 0.329-0.060 0.644-0.169 0.935l0.006-0.018zM2.884 9.115c-0.226-0.226-0.539-0.366-0.884-0.366-0.69 0-1.25 0.56-1.25 1.25 0 0.345 0.14 0.658 0.366 0.884l19.999 20.002c0.226 0.226 0.539 0.366 0.884 0.366 0.691 0 1.251-0.56 1.251-1.251 0-0.345-0.14-0.658-0.366-0.884l0 0zM3.052 17.284c-0.226-0.224-0.537-0.363-0.881-0.363-0.69 0-1.25 0.56-1.25 1.25 0 0.344 0.139 0.656 0.364 0.882l11.832 11.832c0.226 0.226 0.539 0.366 0.884 0.366 0.691 0 1.251-0.56 1.251-1.251 0-0.346-0.14-0.658-0.367-0.885v0z"/> </g>
</svg>