<?xml version="1.0" encoding="utf-8"?><!-- Uploaded to: SVG Repo, www.svgrepo.com, Generator: SVG Repo Mixer Tools -->
<svg width="800px" height="800px" viewBox="0 0 24 24" fill="none" xmlns="http://www.w3.org/2000/svg">
<path fill-rule="evenodd" clip-rule="evenodd" d="M5.51488 1.13472C5.04115 1.41155 4.87883 2.02467 5.15234 2.50416L6.6805 5.18317C4.16417 6.44212 2.46869 8.41363 1.57511 9.90004C0.808296 11.1756 0.808296 12.7543 1.57511 14.0298C2.99629 16.3939 6.44581 19.9849 12 19.9849C13.0492 19.9849 14.0234 19.8568 14.9229 19.6329L16.5577 22.4988C16.8312 22.9783 17.437 23.1426 17.9107 22.8658C18.3844 22.5889 18.5467 21.9758 18.2732 21.4963L16.8352 18.9754C19.6195 17.7375 21.4751 15.6097 22.4249 14.0298C23.1917 12.7543 23.1917 11.1756 22.4249 9.90004C21.0037 7.53602 17.5542 3.94495 12 3.94495C10.7406 3.94495 9.58938 4.12959 8.5455 4.44269L6.86788 1.50166C6.59437 1.02217 5.98861 0.857889 5.51488 1.13472ZM7.67072 6.91912C7.36686 7.06498 7.07579 7.22391 6.79758 7.39346L12.8184 17.9485C13.1843 17.9201 13.539 17.873 13.8826 17.8092L7.67072 6.91912ZM15.8394 17.2296C18.1627 16.267 19.8016 14.5363 20.7326 12.9876C21.1146 12.3523 21.1146 11.5776 20.7326 10.9423C19.3523 8.64619 16.416 5.94995 12 5.94995C11.1327 5.94995 10.3224 6.05395 9.56986 6.2385L10.6791 8.1832C11.0923 8.03538 11.5369 7.95494 12 7.95494C14.1881 7.95494 15.9619 9.75028 15.9619 11.9649C15.9619 13.1847 15.4238 14.2772 14.5748 15.0127L15.8394 17.2296ZM13.5551 13.225C13.8285 12.8799 13.992 12.4417 13.992 11.9649C13.992 10.8514 13.1001 9.94875 12 9.94875C11.8978 9.94875 11.7973 9.95654 11.6993 9.97157L13.5551 13.225ZM10.4866 17.8706L5.19674 8.59703C4.93679 8.83443 4.69445 9.07927 4.46981 9.32772L9.1814 17.5876C9.59782 17.7081 10.0329 17.8039 10.4866 17.8706ZM5.97689 15.9798L3.18711 11.089C2.88764 11.6942 2.9144 12.4005 3.26738 12.9876C3.87309 13.9952 4.77841 15.0798 5.97689 15.9798Z" fill="#0F0F0F"/>
</svg>