<svg version="1.1" id="Layer_1" xmlns="http://www.w3.org/2000/svg" xmlns:xlink="http://www.w3.org/1999/xlink" x="0px" y="0px"
	 width="100%" viewBox="0 0 427 471" enable-background="new 0 0 427 471" xml:space="preserve">

<path fill="#1D5DFF" opacity="1.000000" stroke="none" 
	d="
M43.882896,166.997803 
	C49.563602,153.356827 53.922890,138.969879 61.135399,126.193642 
	C115.739342,29.468216 248.561127,12.331305 326.471313,91.525055 
	C347.836639,113.242378 361.673523,139.136078 369.877563,169.050934 
	C377.787903,202.415359 375.992401,234.527084 364.890106,266.155609 
	C359.388489,281.828888 351.148010,296.043365 341.587189,309.894348 
	C331.711212,319.978058 322.940582,330.855377 312.427460,339.649628 
	C249.662338,392.153076 153.784882,389.457825 94.067520,333.631561 
	C84.648834,324.826569 76.712860,314.435486 68.022591,304.444489 
	C46.946548,272.721497 37.056202,238.143265 39.157562,200.437164 
	C39.781704,189.237701 42.256233,178.141388 43.882896,166.997803 
M121.728516,93.227821 
	C45.874950,149.776596 42.733135,261.507965 115.333710,320.644531 
	C162.104797,358.741699 225.876724,363.967499 278.732971,334.034271 
	C329.533905,305.265015 357.580261,247.214676 349.105347,188.377350 
	C333.763947,81.868790 209.217758,29.392448 121.728516,93.227821 
z"/>



<path fill="#1C5CFF" opacity="1.000000" stroke="none" 
	d="
M334.503876,242.394653 
	C309.871460,337.699127 191.944916,373.381195 119.081528,307.927399 
	C62.109852,256.749237 59.348579,168.796295 114.257256,115.604622 
	C152.196579,78.851685 198.068207,67.887177 248.185959,84.561325 
	C298.245361,101.216057 327.706879,137.388916 337.074402,189.474335 
	C340.247528,207.117615 338.876587,224.653198 334.503876,242.394653 
M281.773315,152.740128 
	C273.556396,141.587509 263.418365,132.679932 251.318451,125.858032 
	C213.828003,104.721031 164.265045,114.278671 137.459061,147.962479 
	C109.822861,182.689514 109.083092,231.544296 136.356995,266.557037 
	C177.538422,319.423553 245.753265,308.956268 277.804077,269.805054 
	C306.317841,234.974426 305.985596,185.251160 281.773315,152.740128 
z"/>
<path fill="#FBFDFF" opacity="1.000000" stroke="none" 
	d="
M281.970764,153.037079 
	C305.985596,185.251160 306.317841,234.974426 277.804077,269.805054 
	C245.753265,308.956268 177.538422,319.423553 136.356995,266.557037 
	C109.083092,231.544296 109.822861,182.689514 137.459061,147.962479 
	C164.265045,114.278671 213.828003,104.721031 251.318451,125.858032 
	C263.418365,132.679932 273.556396,141.587509 281.970764,153.037079 
M181.772675,178.831009 
	C179.287506,177.874634 176.769989,176.993988 174.322861,175.948578 
	C164.523544,171.762375 154.845978,167.261169 144.890503,163.491531 
	C142.392532,162.545670 138.403717,162.985153 136.261719,164.467056 
	C134.580139,165.630402 133.492523,169.868225 134.302628,171.861923 
	C135.338379,174.410980 138.233963,176.706375 140.871811,178.014908 
	C151.907043,183.489105 162.998672,188.905609 174.360275,193.646805 
	C182.281296,196.952255 185.202240,202.057892 185.028244,210.590790 
	C184.576813,232.731766 184.852127,254.888138 184.896011,277.038269 
	C184.908340,283.255127 188.209564,286.750641 193.801361,286.760376 
	C198.742798,286.768982 202.747986,282.501953 202.809387,276.778534 
	C202.920151,266.454041 202.831741,256.127533 202.855789,245.801910 
	C202.863373,242.545197 203.753830,239.483383 207.487488,239.224075 
	C211.688843,238.932312 212.529205,242.259216 212.838669,245.607529 
	C212.960815,246.929077 212.875015,248.270279 212.875565,249.602539 
	C212.879410,258.928925 212.866272,268.255371 212.890640,277.581696 
	C212.900574,281.381195 214.227631,285.147644 217.997238,285.788879 
	C221.208832,286.335114 225.463608,285.712921 227.968735,283.863129 
	C229.941895,282.406158 230.689926,278.299377 230.718552,275.357269 
	C230.935562,253.042603 230.990707,230.723343 230.756470,208.409088 
	C230.681915,201.305603 233.411346,196.916199 239.929504,194.092682 
	C252.301010,188.733673 264.491974,182.956512 276.738037,177.309906 
	C281.724182,175.010803 283.843262,171.011276 282.289886,167.098007 
	C280.540405,162.690536 276.458984,161.339859 270.969147,163.608597 
	C262.044312,167.296875 253.132584,171.023941 244.297241,174.920395 
	C224.190689,183.787476 203.680511,186.082001 181.772675,178.831009 
M206.810150,177.786911 
	C207.636429,177.724808 208.463425,177.670792 209.288895,177.599396 
	C218.756912,176.780472 225.670044,170.087830 226.642838,160.802185 
	C227.468719,152.918900 221.644440,144.219315 213.735764,141.523163 
	C203.912750,138.174408 192.813950,144.069962 190.145798,154.053894 
	C187.134918,165.320282 193.868439,175.355164 206.810150,177.786911 
z"/>
<path fill="#1D5DFF" opacity="1.000000" stroke="none" 
	d="
M182.147980,178.959549 
	C203.680511,186.082001 224.190689,183.787476 244.297241,174.920395 
	C253.132584,171.023941 262.044312,167.296875 270.969147,163.608597 
	C276.458984,161.339859 280.540405,162.690536 282.289886,167.098007 
	C283.843262,171.011276 281.724182,175.010803 276.738037,177.309906 
	C264.491974,182.956512 252.301010,188.733673 239.929504,194.092682 
	C233.411346,196.916199 230.681915,201.305603 230.756470,208.409088 
	C230.990707,230.723343 230.935562,253.042603 230.718552,275.357269 
	C230.689926,278.299377 229.941895,282.406158 227.968735,283.863129 
	C225.463608,285.712921 221.208832,286.335114 217.997238,285.788879 
	C214.227631,285.147644 212.900574,281.381195 212.890640,277.581696 
	C212.866272,268.255371 212.879410,258.928925 212.875565,249.602539 
	C212.875015,248.270279 212.960815,246.929077 212.838669,245.607529 
	C212.529205,242.259216 211.688843,238.932312 207.487488,239.224075 
	C203.753830,239.483383 202.863373,242.545197 202.855789,245.801910 
	C202.831741,256.127533 202.920151,266.454041 202.809387,276.778534 
	C202.747986,282.501953 198.742798,286.768982 193.801361,286.760376 
	C188.209564,286.750641 184.908340,283.255127 184.896011,277.038269 
	C184.852127,254.888138 184.576813,232.731766 185.028244,210.590790 
	C185.202240,202.057892 182.281296,196.952255 174.360275,193.646805 
	C162.998672,188.905609 151.907043,183.489105 140.871811,178.014908 
	C138.233963,176.706375 135.338379,174.410980 134.302628,171.861923 
	C133.492523,169.868225 134.580139,165.630402 136.261719,164.467056 
	C138.403717,162.985153 142.392532,162.545670 144.890503,163.491531 
	C154.845978,167.261169 164.523544,171.762375 174.322861,175.948578 
	C176.769989,176.993988 179.287506,177.874634 182.147980,178.959549 
z"/>
<path fill="#1E5EFF" opacity="1.000000" stroke="none" 
	d="
M206.401306,177.728424 
	C193.868439,175.355164 187.134918,165.320282 190.145798,154.053894 
	C192.813950,144.069962 203.912750,138.174408 213.735764,141.523163 
	C221.644440,144.219315 227.468719,152.918900 226.642838,160.802185 
	C225.670044,170.087830 218.756912,176.780472 209.288895,177.599396 
	C208.463425,177.670792 207.636429,177.724808 206.401306,177.728424 
z"/>
</svg>
